<svg width="31" height="30" viewBox="0 0 31 30" fill="none" xmlns="http://www.w3.org/2000/svg">
<path d="M15.1603 12.017C13.4983 12.017 12.145 13.3552 12.145 14.9996C12.145 16.6447 13.4983 17.9836 15.1603 17.9836C16.823 17.9836 18.1756 16.6447 18.1756 14.9996C18.1756 13.3552 16.823 12.017 15.1603 12.017ZM15.1603 12.017C13.4983 12.017 12.145 13.3552 12.145 14.9996C12.145 16.6447 13.4983 17.9836 15.1603 17.9836C16.823 17.9836 18.1756 16.6447 18.1756 14.9996C18.1756 13.3552 16.823 12.017 15.1603 12.017ZM20.1836 7.1529H10.1377C8.53426 7.1529 7.22954 8.4438 7.22954 10.0303V19.9697C7.22954 21.5561 8.53426 22.847 10.1377 22.847H20.1836C21.7871 22.847 23.0918 21.5561 23.0918 19.9697V10.0303C23.0918 8.4438 21.7871 7.1529 20.1836 7.1529ZM15.1603 20.1665C12.2814 20.1665 9.93879 17.8487 9.93879 14.9996C9.93879 12.1512 12.2814 9.83343 15.1603 9.83343C18.0399 9.83343 20.3826 12.1512 20.3826 14.9996C20.3826 17.8487 18.0399 20.1665 15.1603 20.1665ZM20.5502 10.9018C19.8689 10.9018 19.3147 10.3535 19.3147 9.67939C19.3147 9.00531 19.8689 8.45696 20.5502 8.45696C21.2315 8.45696 21.7858 9.00531 21.7858 9.67939C21.7858 10.3535 21.2315 10.9018 20.5502 10.9018ZM15.1603 12.017C13.4983 12.017 12.145 13.3552 12.145 14.9996C12.145 16.6447 13.4983 17.9836 15.1603 17.9836C16.823 17.9836 18.1756 16.6447 18.1756 14.9996C18.1756 13.3552 16.823 12.017 15.1603 12.017ZM20.1836 7.1529H10.1377C8.53426 7.1529 7.22954 8.4438 7.22954 10.0303V19.9697C7.22954 21.5561 8.53426 22.847 10.1377 22.847H20.1836C21.7871 22.847 23.0918 21.5561 23.0918 19.9697V10.0303C23.0918 8.4438 21.7871 7.1529 20.1836 7.1529ZM15.1603 20.1665C12.2814 20.1665 9.93879 17.8487 9.93879 14.9996C9.93879 12.1512 12.2814 9.83343 15.1603 9.83343C18.0399 9.83343 20.3826 12.1512 20.3826 14.9996C20.3826 17.8487 18.0399 20.1665 15.1603 20.1665ZM20.5502 10.9018C19.8689 10.9018 19.3147 10.3535 19.3147 9.67939C19.3147 9.00531 19.8689 8.45696 20.5502 8.45696C21.2315 8.45696 21.7858 9.00531 21.7858 9.67939C21.7858 10.3535 21.2315 10.9018 20.5502 10.9018ZM15.1603 12.017C13.4983 12.017 12.145 13.3552 12.145 14.9996C12.145 16.6447 13.4983 17.9836 15.1603 17.9836C16.823 17.9836 18.1756 16.6447 18.1756 14.9996C18.1756 13.3552 16.823 12.017 15.1603 12.017ZM0 0V29.9999H30.3214V0H0ZM25.2981 19.9697C25.2981 22.7601 23.004 25.0299 20.1836 25.0299H10.1377C7.31736 25.0299 5.02329 22.7601 5.02329 19.9697V10.0303C5.02329 7.2398 7.31736 4.97004 10.1377 4.97004H20.1836C23.004 4.97004 25.2981 7.2398 25.2981 10.0303V19.9697ZM20.1836 7.1529H10.1377C8.53426 7.1529 7.22954 8.4438 7.22954 10.0303V19.9697C7.22954 21.5561 8.53426 22.847 10.1377 22.847H20.1836C21.7871 22.847 23.0918 21.5561 23.0918 19.9697V10.0303C23.0918 8.4438 21.7871 7.1529 20.1836 7.1529ZM15.1603 20.1665C12.2814 20.1665 9.93879 17.8487 9.93879 14.9996C9.93879 12.1512 12.2814 9.83343 15.1603 9.83343C18.0399 9.83343 20.3826 12.1512 20.3826 14.9996C20.3826 17.8487 18.0399 20.1665 15.1603 20.1665ZM20.5502 10.9018C19.8689 10.9018 19.3147 10.3535 19.3147 9.67939C19.3147 9.00531 19.8689 8.45696 20.5502 8.45696C21.2315 8.45696 21.7858 9.00531 21.7858 9.67939C21.7858 10.3535 21.2315 10.9018 20.5502 10.9018ZM15.1603 12.017C13.4983 12.017 12.145 13.3552 12.145 14.9996C12.145 16.6447 13.4983 17.9836 15.1603 17.9836C16.823 17.9836 18.1756 16.6447 18.1756 14.9996C18.1756 13.3552 16.823 12.017 15.1603 12.017ZM15.1603 12.017C13.4983 12.017 12.145 13.3552 12.145 14.9996C12.145 16.6447 13.4983 17.9836 15.1603 17.9836C16.823 17.9836 18.1756 16.6447 18.1756 14.9996C18.1756 13.3552 16.823 12.017 15.1603 12.017ZM15.1603 12.017C13.4983 12.017 12.145 13.3552 12.145 14.9996C12.145 16.6447 13.4983 17.9836 15.1603 17.9836C16.823 17.9836 18.1756 16.6447 18.1756 14.9996C18.1756 13.3552 16.823 12.017 15.1603 12.017ZM20.1836 7.1529H10.1377C8.53426 7.1529 7.22954 8.4438 7.22954 10.0303V19.9697C7.22954 21.5561 8.53426 22.847 10.1377 22.847H20.1836C21.7871 22.847 23.0918 21.5561 23.0918 19.9697V10.0303C23.0918 8.4438 21.7871 7.1529 20.1836 7.1529ZM15.1603 20.1665C12.2814 20.1665 9.93879 17.8487 9.93879 14.9996C9.93879 12.1512 12.2814 9.83343 15.1603 9.83343C18.0399 9.83343 20.3826 12.1512 20.3826 14.9996C20.3826 17.8487 18.0399 20.1665 15.1603 20.1665ZM20.5502 10.9018C19.8689 10.9018 19.3147 10.3535 19.3147 9.67939C19.3147 9.00531 19.8689 8.45696 20.5502 8.45696C21.2315 8.45696 21.7858 9.00531 21.7858 9.67939C21.7858 10.3535 21.2315 10.9018 20.5502 10.9018ZM15.1603 12.017C13.4983 12.017 12.145 13.3552 12.145 14.9996C12.145 16.6447 13.4983 17.9836 15.1603 17.9836C16.823 17.9836 18.1756 16.6447 18.1756 14.9996C18.1756 13.3552 16.823 12.017 15.1603 12.017ZM15.1603 12.017C13.4983 12.017 12.145 13.3552 12.145 14.9996C12.145 16.6447 13.4983 17.9836 15.1603 17.9836C16.823 17.9836 18.1756 16.6447 18.1756 14.9996C18.1756 13.3552 16.823 12.017 15.1603 12.017ZM15.1603 12.017C13.4983 12.017 12.145 13.3552 12.145 14.9996C12.145 16.6447 13.4983 17.9836 15.1603 17.9836C16.823 17.9836 18.1756 16.6447 18.1756 14.9996C18.1756 13.3552 16.823 12.017 15.1603 12.017ZM20.1836 7.1529H10.1377C8.53426 7.1529 7.22954 8.4438 7.22954 10.0303V19.9697C7.22954 21.5561 8.53426 22.847 10.1377 22.847H20.1836C21.7871 22.847 23.0918 21.5561 23.0918 19.9697V10.0303C23.0918 8.4438 21.7871 7.1529 20.1836 7.1529ZM15.1603 20.1665C12.2814 20.1665 9.93879 17.8487 9.93879 14.9996C9.93879 12.1512 12.2814 9.83343 15.1603 9.83343C18.0399 9.83343 20.3826 12.1512 20.3826 14.9996C20.3826 17.8487 18.0399 20.1665 15.1603 20.1665ZM20.5502 10.9018C19.8689 10.9018 19.3147 10.3535 19.3147 9.67939C19.3147 9.00531 19.8689 8.45696 20.5502 8.45696C21.2315 8.45696 21.7858 9.00531 21.7858 9.67939C21.7858 10.3535 21.2315 10.9018 20.5502 10.9018ZM15.1603 12.017C13.4983 12.017 12.145 13.3552 12.145 14.9996C12.145 16.6447 13.4983 17.9836 15.1603 17.9836C16.823 17.9836 18.1756 16.6447 18.1756 14.9996C18.1756 13.3552 16.823 12.017 15.1603 12.017Z" fill="url(#paint0_linear)"/>
<defs>
<linearGradient id="paint0_linear" x1="23" y1="2.49418e-07" x2="15.1607" y2="29.9999" gradientUnits="userSpaceOnUse">
<stop stop-color="#6027CB"/>
<stop offset="0.254167" stop-color="#BB1776"/>
<stop offset="0.491668" stop-color="#EF5332"/>
<stop offset="0.750002" stop-color="#F28633"/>
<stop offset="1" stop-color="#FBDE82"/>
</linearGradient>
</defs>
</svg>
