<svg width="166" height="169" viewBox="0 0 166 169" fill="none" xmlns="http://www.w3.org/2000/svg">
<path d="M100.001 64.896C92.3497 66.248 86.281 72.7376 84.6978 80.3088C83.9063 84.9056 84.434 89.5024 86.5448 93.288C87.3364 94.9104 87.0725 96.8032 86.0171 98.1552L77.8376 106.808C76.7821 108.16 74.9351 108.43 73.352 107.89C70.7134 106.808 67.5472 106.538 64.3809 107.349C59.1038 108.701 54.8821 113.298 53.8266 118.706C51.4519 129.792 60.9508 139.526 71.7689 137.093C77.046 136.011 81.5316 131.414 82.8508 126.006C83.6424 122.491 83.3785 119.246 82.3231 116.272C81.7954 114.65 82.0593 113.027 83.1147 111.946L91.5581 103.022C92.8774 101.67 94.7244 101.4 96.3075 102.211C100.001 103.834 104.223 104.374 108.445 103.563C115.833 101.941 121.902 95.7216 123.221 88.1504C125.332 74.0896 113.458 62.192 100.001 64.896Z" fill="white"/>
<path d="M40.6339 71.656C33.7736 71.656 28.2326 77.3344 28.2326 84.3648C28.2326 91.3952 33.7736 97.0736 40.6339 97.0736C47.4941 97.0736 53.0351 91.3952 53.0351 84.3648C53.0351 77.3344 47.4941 71.656 40.6339 71.656Z" fill="white"/>
<path d="M103.696 140.338C93.1413 140.338 84.4341 149.261 84.4341 160.077C84.4341 163.322 85.2256 166.296 86.5449 169C99.7377 168.459 112.139 164.674 123.221 158.184C121.902 148.179 113.722 140.338 103.696 140.338Z" fill="white"/>
<path d="M164.383 71.656C158.578 72.7376 154.356 77.8752 154.356 84.0944C154.356 90.3136 158.578 95.4512 164.383 96.5328C164.91 92.4768 165.174 88.4208 165.174 84.0944C165.174 80.0384 164.91 75.9824 164.383 71.656Z" fill="white"/>
<path d="M71.5051 61.3808C76.7822 60.2992 81.2677 55.7024 82.587 50.2944C83.3786 46.7792 83.1147 43.5344 82.0593 40.8304C81.5316 39.208 81.7955 37.5856 82.8509 36.504L91.2943 27.5808C92.6136 26.2288 94.4606 25.9584 96.0437 26.7696C98.4184 27.8512 101.057 28.6624 103.959 28.6624C113.986 28.6624 122.165 20.8208 123.221 10.816C112.403 4.5968 99.7377 0.8112 86.5449 0C85.2256 2.704 84.434 5.6784 84.434 8.9232C84.434 12.168 85.2256 15.1424 86.5449 17.8464C87.3364 19.4688 87.0726 21.3616 86.0172 22.7136L77.8376 31.3664C76.7822 32.7184 74.9352 32.9888 73.352 32.448C70.7135 31.3664 67.5472 31.096 64.3809 31.9072C59.1038 33.2592 54.8821 37.856 53.8267 43.264C51.1881 54.08 60.6869 63.8144 71.5051 61.3808Z" fill="white"/>
<path d="M139.316 106.808C131.137 106.808 124.276 113.568 124.276 122.221C124.276 130.603 130.873 137.634 139.316 137.634C147.496 137.634 154.356 130.874 154.356 122.221C154.356 113.838 147.496 106.808 139.316 106.808Z" fill="white"/>
<path d="M139.316 31.096C131.137 31.096 124.276 37.856 124.276 46.5088C124.276 54.8912 130.873 61.9216 139.316 61.9216C147.496 61.9216 154.356 55.1616 154.356 46.5088C154.356 37.856 147.496 31.096 139.316 31.096Z" fill="white"/>
<path d="M45.1194 24.0656C48.9082 24.0656 51.9797 20.918 51.9797 17.0352C51.9797 13.1524 48.9082 10.0048 45.1194 10.0048C41.3306 10.0048 38.2592 13.1524 38.2592 17.0352C38.2592 20.918 41.3306 24.0656 45.1194 24.0656Z" fill="white"/>
<path d="M17.1507 52.4576C20.9395 52.4576 24.011 49.3099 24.011 45.4272C24.011 41.5444 20.9395 38.3968 17.1507 38.3968C13.3619 38.3968 10.2905 41.5444 10.2905 45.4272C10.2905 49.3099 13.3619 52.4576 17.1507 52.4576Z" fill="white"/>
<path d="M6.86026 91.1248C10.6491 91.1248 13.7205 87.9772 13.7205 84.0944C13.7205 80.2116 10.6491 77.064 6.86026 77.064C3.07144 77.064 0 80.2116 0 84.0944C0 87.9772 3.07144 91.1248 6.86026 91.1248Z" fill="white"/>
<path d="M16.8868 130.062C20.6756 130.062 23.747 126.915 23.747 123.032C23.747 119.149 20.6756 116.002 16.8868 116.002C13.098 116.002 10.0265 119.149 10.0265 123.032C10.0265 126.915 13.098 130.062 16.8868 130.062Z" fill="white"/>
<path d="M44.3278 158.454C48.1166 158.454 51.1881 155.307 51.1881 151.424C51.1881 147.541 48.1166 144.394 44.3278 144.394C40.539 144.394 37.4675 147.541 37.4675 151.424C37.4675 155.307 40.539 158.454 44.3278 158.454Z" fill="white"/>
</svg>
