<svg width="468" height="65" viewBox="0 0 468 65" fill="none" xmlns="http://www.w3.org/2000/svg">
<path d="M21.2911 9.11039H0.710327V1.53918H50.3153V9.11039H29.9984V62.92H21.555V9.11039H21.2911Z" fill="white"/>
<path d="M105.197 55.3488V62.92H61.6611V1.53918H103.878V9.11039H70.1045V28.0384H100.184V35.6096H70.1045V55.3488H105.197Z" fill="white"/>
<path d="M172.481 1.53918V63.1904H165.357L129.208 17.2224V63.1904H120.501V1.53918H127.625L163.773 47.5072V1.53918H172.481Z" fill="white"/>
<path d="M202.56 59.6752C197.811 56.9712 193.853 53.1856 191.215 48.3184C188.576 43.4512 186.993 38.0432 186.993 32.0944C186.993 26.1456 188.312 20.7376 191.215 15.8704C193.853 11.0032 197.811 7.21764 202.56 4.51364C207.31 1.80964 212.851 0.457642 218.92 0.457642C223.669 0.457642 227.891 1.26885 231.849 2.89125C235.806 4.51365 238.973 6.94724 241.875 9.92164L236.334 15.3296C231.848 10.4624 226.308 8.02884 219.447 8.02884C214.962 8.02884 211.004 9.11045 207.31 11.0032C203.616 13.1664 200.977 15.8704 198.866 19.3856C196.756 22.9008 195.7 26.9568 195.7 31.5536C195.7 35.88 196.756 39.936 198.866 43.7216C200.977 47.2368 203.616 50.2112 207.31 52.104C211.004 54.2672 214.962 55.0784 219.447 55.0784C226.044 55.0784 231.848 52.6448 236.334 47.7776L241.875 53.1856C239.236 56.4304 235.806 58.864 231.849 60.4864C227.891 62.1088 223.669 62.92 218.92 62.92C212.851 63.7312 207.574 62.3792 202.56 59.6752Z" fill="white"/>
<path d="M265.358 59.6753C260.609 56.9713 256.651 53.1857 254.012 48.3185C251.11 43.4513 249.791 38.0433 249.791 32.3649C249.791 26.4161 251.11 21.0081 254.012 16.4113C256.915 11.5441 260.609 7.75847 265.358 5.05447C270.108 2.35047 275.649 0.998474 281.717 0.998474C287.786 0.998474 293.063 2.35047 298.076 5.05447C302.826 7.75847 306.784 11.5441 309.422 16.4113C312.061 21.2785 313.644 26.6865 313.644 32.6353C313.644 38.5841 312.325 43.9921 309.422 48.8593C306.784 53.7265 302.826 57.5121 298.076 60.2161C293.327 62.9201 287.786 64.2721 281.717 64.2721C275.649 63.7313 270.108 62.3793 265.358 59.6753ZM293.591 52.9153C297.021 50.7521 299.923 48.0481 302.034 44.5329C304.145 41.0177 305.2 36.9617 305.2 32.3649C305.2 28.0385 304.145 23.9825 302.034 20.1969C299.923 16.6817 297.285 13.7073 293.591 11.8145C290.161 9.65127 286.203 8.84007 281.717 8.84007C277.232 8.84007 273.274 9.92167 269.844 11.8145C266.15 13.9777 263.511 16.6817 261.4 20.1969C259.289 23.7121 258.234 27.7681 258.234 32.3649C258.234 36.6913 259.289 40.7473 261.4 44.5329C263.511 48.0481 266.15 51.0225 269.844 52.9153C273.538 55.0785 277.496 55.8897 281.717 55.8897C285.939 55.8897 289.897 54.8081 293.591 52.9153Z" fill="white"/>
<path d="M328.42 1.53918H337.127V63.1904H328.42V1.53918Z" fill="white"/>
<path d="M408.105 1.53918V63.1904H400.981L364.832 17.2224V63.1904H356.125V1.53918H363.249L399.397 47.5072V1.53918H408.105Z" fill="white"/>
<path d="M432.379 61.568C428.158 60.216 424.991 58.3232 422.353 55.8896L425.519 49.1296C427.894 51.2928 430.796 52.9152 434.226 54.2672C437.92 55.6192 441.35 56.16 445.308 56.16C450.322 56.16 454.016 55.3488 456.39 53.456C458.765 51.8336 460.084 49.4 460.084 46.4256C460.084 44.2624 459.293 42.64 457.973 41.288C456.654 39.936 455.071 38.8544 452.96 38.3136C451.113 37.5024 448.211 36.6912 444.517 35.88C440.031 34.7984 436.337 33.7168 433.699 32.6352C430.796 31.5536 428.421 29.9312 426.575 27.4976C424.728 25.064 423.672 22.0896 423.672 18.0336C423.672 14.7888 424.464 11.8144 426.311 9.11044C427.894 6.40644 430.532 4.24325 433.962 2.89125C437.393 1.26885 441.614 0.457642 446.628 0.457642C450.058 0.457642 453.752 0.998442 457.182 1.80964C460.612 2.62084 463.514 3.97284 465.889 5.86564L462.987 12.896C460.348 11.2736 457.71 9.92164 454.807 9.11044C451.905 8.29924 449.266 7.75844 446.364 7.75844C441.614 7.75844 437.92 8.56964 435.546 10.4624C433.171 12.3552 431.852 14.5184 431.852 17.4928C431.852 19.656 432.643 21.2784 433.962 22.6304C435.282 23.9824 437.129 25.064 438.976 25.6048C441.087 26.416 443.725 27.2272 447.155 28.0384C451.641 29.12 455.335 30.2016 457.973 31.2832C460.612 32.3648 462.987 33.9872 465.098 36.4208C467.208 38.8544 468 41.8288 468 45.6144C468 48.8592 467.208 51.8336 465.361 54.5376C463.778 57.2416 461.14 59.4048 457.446 60.7568C454.016 62.3792 449.794 63.1904 444.517 63.1904C440.823 63.7312 436.601 63.1904 432.379 61.568Z" fill="white"/>
</svg>
