<svg width="204" height="51" viewBox="0 0 204 51" fill="none" xmlns="http://www.w3.org/2000/svg">
<path d="M69.1944 18.4416H62.9836V16.1568H77.9532V18.4416H71.822V34.68H69.274V18.4416H69.1944Z" fill="#282828"/>
<path d="M94.5152 32.3952V34.68H81.377V16.1568H94.1171V18.4416H83.9251V24.1536H93.0023V26.4384H83.9251V32.3952H94.5152Z" fill="#282828"/>
<path d="M114.82 16.1568V34.7616H112.67L101.761 20.8896V34.7616H99.1335V16.1568H101.283L112.192 30.0288V16.1568H114.82Z" fill="#282828"/>
<path d="M123.897 33.7008C122.464 32.8848 121.269 31.7424 120.473 30.2736C119.677 28.8048 119.199 27.1728 119.199 25.3776C119.199 23.5824 119.597 21.9504 120.473 20.4816C121.269 19.0128 122.464 17.8704 123.897 17.0544C125.33 16.2384 127.002 15.8304 128.834 15.8304C130.267 15.8304 131.541 16.0752 132.735 16.5648C133.93 17.0544 134.885 17.7888 135.761 18.6864L134.089 20.3184C132.735 18.8496 131.063 18.1152 128.993 18.1152C127.639 18.1152 126.445 18.4416 125.33 19.0128C124.215 19.6656 123.419 20.4816 122.782 21.5424C122.145 22.6032 121.827 23.8272 121.827 25.2144C121.827 26.52 122.145 27.744 122.782 28.8864C123.419 29.9472 124.215 30.8448 125.33 31.416C126.445 32.0688 127.639 32.3136 128.993 32.3136C130.984 32.3136 132.735 31.5792 134.089 30.1104L135.761 31.7424C134.965 32.7216 133.93 33.456 132.735 33.9456C131.541 34.4352 130.267 34.68 128.834 34.68C127.002 34.9248 125.41 34.5168 123.897 33.7008Z" fill="#282828"/>
<path d="M142.848 33.7008C141.415 32.8848 140.22 31.7424 139.424 30.2736C138.548 28.8048 138.15 27.1728 138.15 25.4592C138.15 23.664 138.548 22.032 139.424 20.6448C140.3 19.176 141.415 18.0336 142.848 17.2176C144.281 16.4016 145.953 15.9936 147.785 15.9936C149.616 15.9936 151.208 16.4016 152.721 17.2176C154.155 18.0336 155.349 19.176 156.145 20.6448C156.941 22.1136 157.419 23.7456 157.419 25.5408C157.419 27.336 157.021 28.968 156.145 30.4368C155.349 31.9056 154.155 33.048 152.721 33.864C151.288 34.68 149.616 35.088 147.785 35.088C145.953 34.9248 144.281 34.5168 142.848 33.7008ZM151.368 31.6608C152.403 31.008 153.279 30.192 153.916 29.1312C154.553 28.0704 154.871 26.8464 154.871 25.4592C154.871 24.1536 154.553 22.9296 153.916 21.7872C153.279 20.7264 152.482 19.8288 151.368 19.2576C150.333 18.6048 149.138 18.36 147.785 18.36C146.431 18.36 145.237 18.6864 144.201 19.2576C143.087 19.9104 142.29 20.7264 141.653 21.7872C141.016 22.848 140.698 24.072 140.698 25.4592C140.698 26.7648 141.016 27.9888 141.653 29.1312C142.29 30.192 143.087 31.0896 144.201 31.6608C145.316 32.3136 146.511 32.5584 147.785 32.5584C149.059 32.5584 150.253 32.232 151.368 31.6608Z" fill="#282828"/>
<path d="M161.878 16.1568H164.506V34.7616H161.878V16.1568Z" fill="#282828"/>
<path d="M185.925 16.1568V34.7616H183.775L172.867 20.8896V34.7616H170.239V16.1568H172.389L183.297 30.0288V16.1568H185.925Z" fill="#282828"/>
<path d="M193.251 34.272C191.977 33.864 191.021 33.2928 190.225 32.5584L191.18 30.5184C191.897 31.1712 192.773 31.6608 193.808 32.0688C194.923 32.4768 195.958 32.64 197.152 32.64C198.665 32.64 199.78 32.3952 200.496 31.824C201.213 31.3344 201.611 30.6 201.611 29.7024C201.611 29.0496 201.372 28.56 200.974 28.152C200.576 27.744 200.098 27.4176 199.461 27.2544C198.904 27.0096 198.028 26.7648 196.913 26.52C195.56 26.1936 194.445 25.8672 193.649 25.5408C192.773 25.2144 192.056 24.7248 191.499 23.9904C190.941 23.256 190.623 22.3584 190.623 21.1344C190.623 20.1552 190.862 19.2576 191.419 18.4416C191.897 17.6256 192.693 16.9728 193.728 16.5648C194.763 16.0752 196.037 15.8304 197.55 15.8304C198.585 15.8304 199.7 15.9936 200.735 16.2384C201.77 16.4832 202.646 16.8912 203.363 17.4624L202.487 19.584C201.691 19.0944 200.895 18.6864 200.019 18.4416C199.143 18.1968 198.347 18.0336 197.471 18.0336C196.037 18.0336 194.923 18.2784 194.206 18.8496C193.489 19.4208 193.091 20.0736 193.091 20.9712C193.091 21.624 193.33 22.1136 193.728 22.5216C194.126 22.9296 194.684 23.256 195.241 23.4192C195.878 23.664 196.674 23.9088 197.71 24.1536C199.063 24.48 200.178 24.8064 200.974 25.1328C201.77 25.4592 202.487 25.9488 203.124 26.6832C203.761 27.4176 204 28.3152 204 29.4576C204 30.4368 203.761 31.3344 203.204 32.1504C202.726 32.9664 201.93 33.6192 200.815 34.0272C199.78 34.5168 198.506 34.7616 196.913 34.7616C195.799 34.9248 194.525 34.7616 193.251 34.272Z" fill="#282828"/>
<path d="M30.178 19.584C27.8689 19.992 26.0375 21.9504 25.5597 24.2352C25.3208 25.6224 25.4801 27.0096 26.1171 28.152C26.356 28.6416 26.2764 29.2128 25.9578 29.6208L23.4895 32.232C23.171 32.64 22.6136 32.7216 22.1358 32.5584C21.3396 32.232 20.3841 32.1504 19.4286 32.3952C17.8361 32.8032 16.5621 34.1904 16.2436 35.8224C15.5269 39.168 18.3934 42.1056 21.6581 41.3712C23.2506 41.0448 24.6042 39.6576 25.0023 38.0256C25.2412 36.9648 25.1616 35.9856 24.8431 35.088C24.6838 34.5984 24.7635 34.1088 25.082 33.7824L27.63 31.0896C28.0281 30.6816 28.5855 30.6 29.0632 30.8448C30.178 31.3344 31.452 31.4976 32.726 31.2528C34.9555 30.7632 36.7869 28.8864 37.185 26.6016C37.822 22.3584 34.2389 18.768 30.178 19.584Z" fill="url(#paint0_linear)"/>
<path d="M12.2623 21.624C10.192 21.624 8.51991 23.3376 8.51991 25.4592C8.51991 27.5808 10.192 29.2944 12.2623 29.2944C14.3326 29.2944 16.0047 27.5808 16.0047 25.4592C16.0047 23.3376 14.3326 21.624 12.2623 21.624Z" fill="url(#paint1_linear)"/>
<path d="M31.2927 42.3504C28.1077 42.3504 25.4801 45.0432 25.4801 48.3072C25.4801 49.2864 25.719 50.184 26.1171 51C30.0984 50.8368 33.8408 49.6944 37.185 47.736C36.7869 44.7168 34.3185 42.3504 31.2927 42.3504Z" fill="url(#paint2_linear)"/>
<path d="M49.6066 21.624C47.8548 21.9504 46.5808 23.5008 46.5808 25.3776C46.5808 27.2544 47.8548 28.8048 49.6066 29.1312C49.7658 27.9072 49.8454 26.6832 49.8454 25.3776C49.8454 24.1536 49.7658 22.9296 49.6066 21.624Z" fill="url(#paint3_linear)"/>
<path d="M21.5785 18.5232C23.171 18.1968 24.5246 16.8096 24.9227 15.1776C25.1616 14.1168 25.082 13.1376 24.7635 12.3216C24.6042 11.832 24.6838 11.3424 25.0023 11.016L27.5504 8.3232C27.9485 7.9152 28.5059 7.8336 28.9836 8.0784C29.7002 8.4048 30.4965 8.6496 31.3724 8.6496C34.3981 8.6496 36.8665 6.2832 37.185 3.264C33.9204 1.3872 30.0984 0.2448 26.1171 0C25.719 0.816 25.4801 1.7136 25.4801 2.6928C25.4801 3.672 25.719 4.5696 26.1171 5.3856C26.356 5.8752 26.2763 6.4464 25.9578 6.8544L23.4895 9.4656C23.171 9.8736 22.6136 9.9552 22.1358 9.792C21.3396 9.4656 20.3841 9.384 19.4286 9.6288C17.8361 10.0368 16.5621 11.424 16.2436 13.056C15.4473 16.32 18.3138 19.2576 21.5785 18.5232Z" fill="url(#paint4_linear)"/>
<path d="M42.0421 32.232C39.5738 32.232 37.5035 34.272 37.5035 36.8832C37.5035 39.4128 39.4941 41.5344 42.0421 41.5344C44.5105 41.5344 46.5808 39.4944 46.5808 36.8832C46.5808 34.3536 44.5105 32.232 42.0421 32.232Z" fill="url(#paint5_linear)"/>
<path d="M42.0421 9.384C39.5738 9.384 37.5035 11.424 37.5035 14.0352C37.5035 16.5648 39.4941 18.6864 42.0421 18.6864C44.5105 18.6864 46.5808 16.6464 46.5808 14.0352C46.5808 11.424 44.5105 9.384 42.0421 9.384Z" fill="url(#paint6_linear)"/>
<path d="M13.6159 7.2624C14.7593 7.2624 15.6862 6.31253 15.6862 5.1408C15.6862 3.96907 14.7593 3.0192 13.6159 3.0192C12.4726 3.0192 11.5457 3.96907 11.5457 5.1408C11.5457 6.31253 12.4726 7.2624 13.6159 7.2624Z" fill="url(#paint7_linear)"/>
<path d="M5.17565 15.8304C6.31902 15.8304 7.24591 14.8805 7.24591 13.7088C7.24591 12.5371 6.31902 11.5872 5.17565 11.5872C4.03228 11.5872 3.10539 12.5371 3.10539 13.7088C3.10539 14.8805 4.03228 15.8304 5.17565 15.8304Z" fill="url(#paint8_linear)"/>
<path d="M2.07026 27.4992C3.21363 27.4992 4.14051 26.5493 4.14051 25.3776C4.14051 24.2059 3.21363 23.256 2.07026 23.256C0.926885 23.256 0 24.2059 0 25.3776C0 26.5493 0.926885 27.4992 2.07026 27.4992Z" fill="url(#paint9_linear)"/>
<path d="M5.09602 39.2496C6.23939 39.2496 7.16628 38.2997 7.16628 37.128C7.16628 35.9563 6.23939 35.0064 5.09602 35.0064C3.95265 35.0064 3.02576 35.9563 3.02576 37.128C3.02576 38.2997 3.95265 39.2496 5.09602 39.2496Z" fill="url(#paint10_linear)"/>
<path d="M13.3771 47.8176C14.5204 47.8176 15.4473 46.8677 15.4473 45.696C15.4473 44.5243 14.5204 43.5744 13.3771 43.5744C12.2337 43.5744 11.3068 44.5243 11.3068 45.696C11.3068 46.8677 12.2337 47.8176 13.3771 47.8176Z" fill="url(#paint11_linear)"/>
<defs>
<linearGradient id="paint0_linear" x1="9.01669" y1="30.465" x2="47.4879" y2="30.465" gradientUnits="userSpaceOnUse">
<stop stop-color="#39CAFF"/>
<stop offset="1" stop-color="#1029BF"/>
</linearGradient>
<linearGradient id="paint1_linear" x1="9.01669" y1="25.4136" x2="47.4879" y2="25.4136" gradientUnits="userSpaceOnUse">
<stop stop-color="#39CAFF"/>
<stop offset="1" stop-color="#1029BF"/>
</linearGradient>
<linearGradient id="paint2_linear" x1="9.01669" y1="46.6545" x2="47.4879" y2="46.6545" gradientUnits="userSpaceOnUse">
<stop stop-color="#39CAFF"/>
<stop offset="1" stop-color="#1029BF"/>
</linearGradient>
<linearGradient id="paint3_linear" x1="9.0167" y1="25.4137" x2="47.4879" y2="25.4137" gradientUnits="userSpaceOnUse">
<stop stop-color="#39CAFF"/>
<stop offset="1" stop-color="#1029BF"/>
</linearGradient>
<linearGradient id="paint4_linear" x1="9.01669" y1="9.2625" x2="47.4879" y2="9.2625" gradientUnits="userSpaceOnUse">
<stop stop-color="#39CAFF"/>
<stop offset="1" stop-color="#1029BF"/>
</linearGradient>
<linearGradient id="paint5_linear" x1="9.01668" y1="36.8685" x2="47.4879" y2="36.8685" gradientUnits="userSpaceOnUse">
<stop stop-color="#39CAFF"/>
<stop offset="1" stop-color="#1029BF"/>
</linearGradient>
<linearGradient id="paint6_linear" x1="9.01668" y1="13.9898" x2="47.4879" y2="13.9898" gradientUnits="userSpaceOnUse">
<stop stop-color="#39CAFF"/>
<stop offset="1" stop-color="#1029BF"/>
</linearGradient>
<linearGradient id="paint7_linear" x1="9.01669" y1="5.15834" x2="47.4879" y2="5.15834" gradientUnits="userSpaceOnUse">
<stop stop-color="#39CAFF"/>
<stop offset="1" stop-color="#1029BF"/>
</linearGradient>
<linearGradient id="paint8_linear" x1="9.01669" y1="13.6872" x2="47.4879" y2="13.6872" gradientUnits="userSpaceOnUse">
<stop stop-color="#39CAFF"/>
<stop offset="1" stop-color="#1029BF"/>
</linearGradient>
<linearGradient id="paint9_linear" x1="9.01669" y1="25.3829" x2="47.4879" y2="25.3829" gradientUnits="userSpaceOnUse">
<stop stop-color="#39CAFF"/>
<stop offset="0.6137" stop-color="#1029BF"/>
</linearGradient>
<linearGradient id="paint10_linear" x1="9.01669" y1="37.1114" x2="47.4879" y2="37.1114" gradientUnits="userSpaceOnUse">
<stop stop-color="#39CAFF"/>
<stop offset="1" stop-color="#1029BF"/>
</linearGradient>
<linearGradient id="paint11_linear" x1="9.01669" y1="45.7306" x2="47.4879" y2="45.7306" gradientUnits="userSpaceOnUse">
<stop stop-color="#39CAFF"/>
<stop offset="1" stop-color="#1029BF"/>
</linearGradient>
</defs>
</svg>
