<svg width="120" height="30" viewBox="0 0 120 30" fill="none" xmlns="http://www.w3.org/2000/svg">
<path d="M40.7025 10.8479H37.0491V9.50391H45.8547V10.8479H42.2481V20.3999H40.7493V10.8479H40.7025Z" fill="#282828"/>
<path d="M55.597 19.0559V20.3999H47.8687V9.50391H55.3628V10.8479H49.3675V14.2079H54.7071V15.5519H49.3675V19.0559H55.597Z" fill="#282828"/>
<path d="M67.5409 9.50391V20.4479H66.2762L59.8594 12.2879V20.4479H58.3137V9.50391H59.5784L65.9952 17.6639V9.50391H67.5409Z" fill="#282828"/>
<path d="M72.8804 19.824C72.0373 19.344 71.3347 18.672 70.8664 17.808C70.398 16.944 70.1169 15.984 70.1169 14.928C70.1169 13.872 70.3511 12.912 70.8664 12.048C71.3347 11.184 72.0373 10.512 72.8804 10.032C73.7235 9.55201 74.7071 9.31201 75.7844 9.31201C76.6275 9.31201 77.3769 9.45601 78.0795 9.74401C78.782 10.032 79.3441 10.464 79.8593 10.992L78.8757 11.952C78.0795 11.088 77.0959 10.656 75.8781 10.656C75.0818 10.656 74.3792 10.848 73.7235 11.184C73.0678 11.568 72.5994 12.048 72.2247 12.672C71.85 13.296 71.6626 14.016 71.6626 14.832C71.6626 15.6 71.85 16.32 72.2247 16.992C72.5994 17.616 73.0678 18.144 73.7235 18.48C74.3792 18.864 75.0818 19.008 75.8781 19.008C77.049 19.008 78.0795 18.576 78.8757 17.712L79.8593 18.672C79.3909 19.248 78.782 19.68 78.0795 19.968C77.3769 20.256 76.6275 20.4 75.7844 20.4C74.7071 20.544 73.7703 20.304 72.8804 19.824Z" fill="#282828"/>
<path d="M84.0279 19.824C83.1848 19.344 82.4822 18.672 82.0138 17.808C81.4986 16.944 81.2644 15.984 81.2644 14.976C81.2644 13.92 81.4986 12.96 82.0138 12.144C82.529 11.28 83.1848 10.608 84.0279 10.128C84.871 9.64796 85.8546 9.40796 86.9318 9.40796C88.0091 9.40796 88.9459 9.64796 89.8358 10.128C90.6789 10.608 91.3815 11.28 91.8499 12.144C92.3183 13.008 92.5993 13.968 92.5993 15.024C92.5993 16.08 92.3651 17.04 91.8499 17.904C91.3815 18.768 90.6789 19.44 89.8358 19.92C88.9927 20.4 88.0091 20.64 86.9318 20.64C85.8546 20.544 84.871 20.304 84.0279 19.824ZM89.0396 18.624C89.6485 18.24 90.1637 17.76 90.5384 17.136C90.9131 16.512 91.1005 15.792 91.1005 14.976C91.1005 14.208 90.9131 13.488 90.5384 12.816C90.1637 12.192 89.6953 11.664 89.0396 11.328C88.4307 10.944 87.7281 10.8 86.9318 10.8C86.1356 10.8 85.433 10.992 84.8241 11.328C84.1684 11.712 83.7 12.192 83.3253 12.816C82.9506 13.44 82.7632 14.16 82.7632 14.976C82.7632 15.744 82.9506 16.464 83.3253 17.136C83.7 17.76 84.1684 18.288 84.8241 18.624C85.4799 19.008 86.1824 19.152 86.9318 19.152C87.6813 19.152 88.3838 18.96 89.0396 18.624Z" fill="#282828"/>
<path d="M95.2224 9.50391H96.7681V20.4479H95.2224V9.50391Z" fill="#282828"/>
<path d="M109.368 9.50391V20.4479H108.103L101.686 12.2879V20.4479H100.14V9.50391H101.405L107.822 17.6639V9.50391H109.368Z" fill="#282828"/>
<path d="M113.677 20.16C112.927 19.92 112.365 19.584 111.897 19.152L112.459 17.952C112.88 18.336 113.396 18.624 114.004 18.864C114.66 19.104 115.269 19.2 115.972 19.2C116.862 19.2 117.517 19.056 117.939 18.72C118.36 18.432 118.595 18 118.595 17.472C118.595 17.088 118.454 16.8 118.22 16.56C117.986 16.32 117.705 16.128 117.33 16.032C117.002 15.888 116.487 15.744 115.831 15.6C115.035 15.408 114.379 15.216 113.911 15.024C113.396 14.832 112.974 14.544 112.646 14.112C112.318 13.68 112.131 13.152 112.131 12.432C112.131 11.856 112.271 11.328 112.599 10.848C112.88 10.368 113.349 9.98401 113.958 9.74401C114.567 9.45601 115.316 9.31201 116.206 9.31201C116.815 9.31201 117.47 9.40801 118.079 9.55201C118.688 9.69601 119.204 9.93601 119.625 10.272L119.11 11.52C118.641 11.232 118.173 10.992 117.658 10.848C117.143 10.704 116.674 10.608 116.159 10.608C115.316 10.608 114.66 10.752 114.239 11.088C113.817 11.424 113.583 11.808 113.583 12.336C113.583 12.72 113.723 13.008 113.958 13.248C114.192 13.488 114.52 13.68 114.848 13.776C115.222 13.92 115.691 14.064 116.3 14.208C117.096 14.4 117.752 14.592 118.22 14.784C118.688 14.976 119.11 15.264 119.485 15.696C119.859 16.128 120 16.656 120 17.328C120 17.904 119.859 18.432 119.531 18.912C119.25 19.392 118.782 19.776 118.126 20.016C117.517 20.304 116.768 20.448 115.831 20.448C115.175 20.544 114.426 20.448 113.677 20.16Z" fill="#282828"/>
<path d="M17.7517 11.5199C16.3934 11.7599 15.3161 12.9119 15.0351 14.2559C14.8946 15.0719 14.9882 15.8879 15.3629 16.5599C15.5035 16.8479 15.4566 17.1839 15.2693 17.4239L13.8173 18.9599C13.6299 19.1999 13.3021 19.2479 13.021 19.1519C12.5526 18.9599 11.9906 18.9119 11.4285 19.0559C10.4918 19.2959 9.74234 20.1119 9.55499 21.0719C9.13344 23.0399 10.8196 24.7679 12.74 24.3359C13.6768 24.1439 14.473 23.3279 14.7072 22.3679C14.8477 21.7439 14.8009 21.1679 14.6135 20.6399C14.5199 20.3519 14.5667 20.0639 14.7541 19.8719L16.2529 18.2879C16.4871 18.0479 16.8149 17.9999 17.096 18.1439C17.7517 18.4319 18.5011 18.5279 19.2505 18.3839C20.562 18.0959 21.6393 16.9919 21.8735 15.6479C22.2482 13.1519 20.1405 11.0399 17.7517 11.5199Z" fill="#A6A6A6"/>
<path d="M7.21312 12.72C5.99533 12.72 5.01172 13.728 5.01172 14.976C5.01172 16.224 5.99533 17.232 7.21312 17.232C8.43092 17.232 9.41453 16.224 9.41453 14.976C9.41453 13.728 8.43092 12.72 7.21312 12.72Z" fill="#A6A6A6"/>
<path d="M18.4075 24.9119C16.5339 24.9119 14.9883 26.4959 14.9883 28.4159C14.9883 28.9919 15.1288 29.5199 15.363 29.9999C17.7049 29.9039 19.9063 29.2319 21.8735 28.0799C21.6393 26.3039 20.1873 24.9119 18.4075 24.9119Z" fill="#A6A6A6"/>
<path d="M29.1802 12.72C28.1498 12.912 27.4004 13.824 27.4004 14.928C27.4004 16.032 28.1498 16.944 29.1802 17.136C29.2739 16.416 29.3208 15.696 29.3208 14.928C29.3208 14.208 29.2739 13.488 29.1802 12.72Z" fill="#A6A6A6"/>
<path d="M12.6933 10.896C13.63 10.704 14.4263 9.888 14.6605 8.928C14.801 8.304 14.7542 7.728 14.5668 7.248C14.4731 6.96 14.52 6.672 14.7073 6.48L16.2062 4.896C16.4404 4.656 16.7682 4.608 17.0493 4.752C17.4708 4.944 17.9392 5.088 18.4544 5.088C20.2343 5.088 21.6863 3.696 21.8736 1.92C19.9532 0.816 17.705 0.144 15.3631 0C15.1289 0.48 14.9884 1.008 14.9884 1.584C14.9884 2.16 15.1289 2.688 15.3631 3.168C15.5036 3.456 15.4567 3.792 15.2694 4.032L13.8174 5.568C13.63 5.808 13.3022 5.856 13.0211 5.76C12.5528 5.568 11.9907 5.52 11.4286 5.664C10.4919 5.904 9.74246 6.72 9.55511 7.68C9.08672 9.6 10.7729 11.328 12.6933 10.896Z" fill="#A6A6A6"/>
<path d="M24.7306 18.96C23.2786 18.96 22.0608 20.16 22.0608 21.696C22.0608 23.184 23.2317 24.432 24.7306 24.432C26.1826 24.432 27.4004 23.232 27.4004 21.696C27.4004 20.208 26.1826 18.96 24.7306 18.96Z" fill="#A6A6A6"/>
<path d="M24.7306 5.52002C23.2786 5.52002 22.0608 6.72002 22.0608 8.25602C22.0608 9.74402 23.2317 10.992 24.7306 10.992C26.1826 10.992 27.4004 9.79202 27.4004 8.25602C27.4004 6.72002 26.1826 5.52002 24.7306 5.52002Z" fill="#A6A6A6"/>
<path d="M8.0093 4.27212C8.68187 4.27212 9.2271 3.71337 9.2271 3.02412C9.2271 2.33487 8.68187 1.77612 8.0093 1.77612C7.33673 1.77612 6.7915 2.33487 6.7915 3.02412C6.7915 3.71337 7.33673 4.27212 8.0093 4.27212Z" fill="#A6A6A6"/>
<path d="M3.04446 9.31192C3.71703 9.31192 4.26226 8.75317 4.26226 8.06392C4.26226 7.37467 3.71703 6.81592 3.04446 6.81592C2.37189 6.81592 1.82666 7.37467 1.82666 8.06392C1.82666 8.75317 2.37189 9.31192 3.04446 9.31192Z" fill="#A6A6A6"/>
<path d="M1.2178 16.1762C1.89037 16.1762 2.4356 15.6174 2.4356 14.9282C2.4356 14.2389 1.89037 13.6802 1.2178 13.6802C0.545227 13.6802 0 14.2389 0 14.9282C0 15.6174 0.545227 16.1762 1.2178 16.1762Z" fill="#A6A6A6"/>
<path d="M2.99758 23.088C3.67016 23.088 4.21538 22.5293 4.21538 21.84C4.21538 21.1508 3.67016 20.592 2.99758 20.592C2.32501 20.592 1.77979 21.1508 1.77979 21.84C1.77979 22.5293 2.32501 23.088 2.99758 23.088Z" fill="#A6A6A6"/>
<path d="M7.86892 28.1281C8.54149 28.1281 9.08672 27.5693 9.08672 26.8801C9.08672 26.1908 8.54149 25.6321 7.86892 25.6321C7.19635 25.6321 6.65112 26.1908 6.65112 26.8801C6.65112 27.5693 7.19635 28.1281 7.86892 28.1281Z" fill="#A6A6A6"/>
</svg>
